<svg width="32" height="32" viewBox="0 0 32 32" fill="none" xmlns="http://www.w3.org/2000/svg">
<g clip-path="url(#clip0_24_21)">
<path d="M32 16C32 7.16344 24.8366 0 16 0C7.16344 0 0 7.16344 0 16C0 24.8366 7.16344 32 16 32C24.8366 32 32 24.8366 32 16Z" fill="#B2E0F2"/>
<path fill-rule="evenodd" clip-rule="evenodd" d="M11.9375 8.375H7.875V16.5H11.9375C9.69385 16.5 7.875 18.3189 7.875 20.5625V24.625H16V20.5625C16 22.8061 17.8189 24.625 20.0625 24.625H24.125V16.5H20.0625C22.3061 16.5 24.125 14.6812 24.125 12.4375V8.375H16V12.4375C16 10.1938 14.1812 8.375 11.9375 8.375ZM16 16.5H11.9375C14.1812 16.5 16 18.3189 16 20.5625V16.5ZM16 16.5V12.4375C16 14.6812 17.8189 16.5 20.0625 16.5H16Z" fill="#201D66"/>
</g>
<defs>
<clipPath id="clip0_24_21">
<rect width="32" height="32" fill="white"/>
</clipPath>
</defs>
</svg>
